<?xml version="1.0" encoding="UTF-8"?>
<svg id="_Слой_1_копия_" data-name="Слой 1 (копия)" xmlns="http://www.w3.org/2000/svg" viewBox="0 0 870 870">
  <defs>
    <style>
      .cls-1 {
        fill: #41b883;
        stroke: #35495e;
        stroke-miterlimit: 10;
        stroke-width: 30px;
      }

      .cls-2 {
        fill: #35495e;
      }
    </style>
  </defs>
  <path class="cls-1" d="m855,641.25c0,10-840,10-840,0,0-231.96,188.04-420,420-420s420,188.04,420,420Z"/>
  <path class="cls-2" d="m223,524c11.33,23.65,61.33,21.33,90,20,30.05-1.4,62.65-2.91,70-20,11.4-26.5-35.71-95.53-90-90-46.92,4.78-82.67,63.55-70,90Z"/>
  <path class="cls-2" d="m636.83,523.94c-11.33,23.65-61.33,21.33-90,20-30.05-1.4-62.65-2.91-70-20-11.4-26.5,35.71-95.53,90-90,46.92,4.78,82.67,63.55,70,90Z"/>
</svg>