<?xml version="1.0" encoding="UTF-8"?>
<svg id="_Слой_1" data-name="Слой 1" xmlns="http://www.w3.org/2000/svg" viewBox="0 0 792.1 101.85">
  <defs>
    <style>
      .cls-1 {
        fill: #41b883;
        stroke: #3c3c43;
        stroke-miterlimit: 10;
        stroke-width: 6.68px;
      }

      .cls-2 {
        fill: #3c3c43;
      }
    </style>
  </defs>
  <g>
    <path class="cls-1" d="m190.34,96.84c0,2.23-187,2.23-187,0C3.34,45.2,45.2,3.34,96.84,3.34s93.5,41.86,93.5,93.5Z"/>
    <path class="cls-2" d="m49.64,70.74c2.52,5.27,13.65,4.75,20.04,4.45,6.69-.31,13.95-.65,15.58-4.45,2.54-5.9-7.95-21.27-20.04-20.04-10.44,1.06-18.4,14.15-15.58,20.04Z"/>
    <path class="cls-2" d="m141.77,70.72c-2.52,5.27-13.65,4.75-20.04,4.45-6.69-.31-13.95-.65-15.58-4.45-2.54-5.9,7.95-21.27,20.04-20.04,10.44,1.06,18.4,14.15,15.58,20.04Z"/>
  </g>
  <g>
    <path class="cls-2" d="m253.01,71.54c0,1.47.13,2.77.4,3.9.27,1.13.75,2.1,1.45,2.9.7.8,1.65,1.4,2.85,1.8,1.2.4,2.73.6,4.6.6,2.4,0,5.13-.13,8.2-.4,3.07-.27,6.07-.67,9-1.2l2.1,13.1c-3.33.73-6.53,1.27-9.6,1.6-3.07.33-6.3.5-9.7.5-4.2,0-7.83-.5-10.9-1.5-3.07-1-5.58-2.4-7.55-4.2-1.97-1.8-3.43-3.95-4.4-6.45-.97-2.5-1.45-5.25-1.45-8.25v-27.8c0-3,.48-5.75,1.45-8.25.97-2.5,2.43-4.65,4.4-6.45,1.97-1.8,4.48-3.2,7.55-4.2,3.07-1,6.7-1.5,10.9-1.5,3.4,0,6.63.17,9.7.5,3.07.33,6.27.87,9.6,1.6l-2.1,13.1c-2.93-.53-5.93-.93-9-1.2-3.07-.27-5.8-.4-8.2-.4-1.87,0-3.4.2-4.6.6-1.2.4-2.15,1-2.85,1.8-.7.8-1.18,1.77-1.45,2.9-.27,1.13-.4,2.43-.4,3.9v23Z"/>
    <path class="cls-2" d="m311.11,94.34c-4.33,0-7.92-.55-10.75-1.65-2.83-1.1-5.08-2.58-6.75-4.45-1.67-1.87-2.83-3.97-3.5-6.3-.67-2.33-1-4.77-1-7.3v-11.3c0-2.47.33-4.88,1-7.25.67-2.37,1.83-4.48,3.5-6.35,1.67-1.87,3.92-3.35,6.75-4.45,2.83-1.1,6.42-1.65,10.75-1.65s7.92.55,10.75,1.65c2.83,1.1,5.08,2.58,6.75,4.45,1.67,1.87,2.83,3.98,3.5,6.35.67,2.37,1,4.78,1,7.25v11.3c0,2.53-.33,4.97-1,7.3-.67,2.33-1.83,4.43-3.5,6.3-1.67,1.87-3.92,3.35-6.75,4.45-2.83,1.1-6.42,1.65-10.75,1.65Zm0-12.1c2.6,0,4.52-.62,5.75-1.85,1.23-1.23,1.85-3.02,1.85-5.35v-12.1c0-2.33-.62-4.12-1.85-5.35-1.23-1.23-3.15-1.85-5.75-1.85s-4.52.62-5.75,1.85c-1.23,1.23-1.85,3.02-1.85,5.35v12.1c0,2.33.62,4.12,1.85,5.35,1.23,1.23,3.15,1.85,5.75,1.85Z"/>
    <path class="cls-2" d="m341.11,76.34v-14.7c0-5.8,1.3-10.25,3.9-13.35,2.6-3.1,6.77-4.65,12.5-4.65,2,0,4.15.13,6.45.4,2.3.27,4.28.6,5.95,1v-20.3l14.4-2v70.6h-11.3l-1.5-3.9c-.87.54-1.88,1.1-3.05,1.7-1.17.6-2.42,1.13-3.75,1.6-1.33.47-2.7.85-4.1,1.15s-2.77.45-4.1.45c-5,0-8.82-1.5-11.45-4.5-2.63-3-3.95-7.5-3.95-13.5Zm28.8-19c-1.27-.33-2.73-.62-4.4-.85-1.67-.23-3.27-.35-4.8-.35-1.93,0-3.28.52-4.05,1.55-.77,1.04-1.15,2.35-1.15,3.95v14.7c0,1.73.38,3.08,1.15,4.05.77.97,2.12,1.45,4.05,1.45,1.67,0,3.35-.4,5.05-1.2,1.7-.8,3.08-1.67,4.15-2.6v-20.7Z"/>
    <path class="cls-2" d="m409.21,74.04v1.4c0,2.8.63,4.68,1.9,5.65,1.27.97,3.57,1.45,6.9,1.45,2.27,0,4.77-.18,7.5-.55,2.73-.37,5.17-.88,7.3-1.55l2.1,10.8c-2.2.8-4.95,1.52-8.25,2.15-3.3.63-6.65.95-10.05.95-3.93,0-7.28-.47-10.05-1.4-2.77-.93-5.02-2.27-6.75-4-1.73-1.73-3-3.82-3.8-6.25-.8-2.43-1.2-5.15-1.2-8.15v-11.4c0-2.6.33-5.08,1-7.45.67-2.37,1.8-4.45,3.4-6.25,1.6-1.8,3.73-3.22,6.4-4.25,2.67-1.03,6.03-1.55,10.1-1.55s7.37.55,9.9,1.65c2.53,1.1,4.53,2.58,6,4.45,1.47,1.87,2.47,4.02,3,6.45.53,2.43.8,4.98.8,7.65v10.2h-26.2Zm12.6-12.9c0-.87-.08-1.67-.25-2.4-.17-.73-.47-1.38-.9-1.95-.43-.57-1.03-1.02-1.8-1.35-.77-.33-1.78-.5-3.05-.5-2.53,0-4.27.6-5.2,1.8-.93,1.2-1.4,2.67-1.4,4.4v2.1h12.6v-2.1Z"/>
    <path class="cls-2" d="m474.31,93.34v-32.2c0-2.33-1.17-3.5-3.5-3.5-.67,0-1.43.1-2.3.3-.87.2-1.78.47-2.75.8-.97.33-1.92.72-2.85,1.15-.93.43-1.8.85-2.6,1.25v32.2h-14.4v-48.7h10.7l1.5,3.7c3-1.47,6.28-2.62,9.85-3.45,3.57-.83,6.75-1.25,9.55-1.25,4.13,0,7.1,1.57,8.9,4.7,2.8-1.33,5.9-2.45,9.3-3.35,3.4-.9,6.8-1.35,10.2-1.35,2.07,0,3.82.37,5.25,1.1,1.43.73,2.58,1.78,3.45,3.15.87,1.37,1.5,3.02,1.9,4.95.4,1.93.6,4.07.6,6.4v34.1h-14.4v-32.2c0-2.33-1.17-3.5-3.5-3.5-.67,0-1.43.1-2.3.3-.87.2-1.78.47-2.75.8-.97.33-1.92.72-2.85,1.15-.93.43-1.8.85-2.6,1.25v32.2h-14.4Z"/>
    <path class="cls-2" d="m549.1,94.34c-4.33,0-7.92-.55-10.75-1.65-2.83-1.1-5.08-2.58-6.75-4.45-1.67-1.87-2.83-3.97-3.5-6.3-.67-2.33-1-4.77-1-7.3v-11.3c0-2.47.33-4.88,1-7.25.67-2.37,1.83-4.48,3.5-6.35,1.67-1.87,3.92-3.35,6.75-4.45,2.83-1.1,6.42-1.65,10.75-1.65s7.92.55,10.75,1.65c2.83,1.1,5.08,2.58,6.75,4.45,1.67,1.87,2.83,3.98,3.5,6.35.67,2.37,1,4.78,1,7.25v11.3c0,2.53-.33,4.97-1,7.3-.67,2.33-1.83,4.43-3.5,6.3-1.67,1.87-3.92,3.35-6.75,4.45-2.83,1.1-6.42,1.65-10.75,1.65Zm0-12.1c2.6,0,4.52-.62,5.75-1.85s1.85-3.02,1.85-5.35v-12.1c0-2.33-.62-4.12-1.85-5.35-1.23-1.23-3.15-1.85-5.75-1.85s-4.52.62-5.75,1.85-1.85,3.02-1.85,5.35v12.1c0,2.33.62,4.12,1.85,5.35,1.23,1.23,3.15,1.85,5.75,1.85Z"/>
    <path class="cls-2" d="m610,93.34v-32.2c0-2.33-1.17-3.5-3.5-3.5-.67,0-1.43.1-2.3.3-.87.2-1.78.47-2.75.8-.97.33-1.92.72-2.85,1.15-.93.43-1.8.85-2.6,1.25v32.2h-14.4v-48.7h10.7l1.5,3.7c3-1.47,6.28-2.62,9.85-3.45,3.57-.83,6.75-1.25,9.55-1.25,2.07,0,3.82.37,5.25,1.1,1.43.73,2.58,1.78,3.45,3.15.87,1.37,1.5,3.02,1.9,4.95.4,1.93.6,4.07.6,6.4v34.1h-14.4Z"/>
    <path class="cls-2" d="m670.2,78.84c0,2.53-.28,4.75-.85,6.65-.57,1.9-1.55,3.52-2.95,4.85-1.4,1.33-3.27,2.33-5.6,3-2.33.67-5.23,1-8.7,1-1.33,0-2.78-.08-4.35-.25-1.57-.17-3.13-.37-4.7-.6-1.57-.23-3.1-.53-4.6-.9-1.5-.37-2.85-.75-4.05-1.15l2.3-10.7c2,.6,4.27,1.12,6.8,1.55,2.53.43,5.17.65,7.9.65,2.13,0,3.5-.32,4.1-.95.6-.63.9-1.68.9-3.15,0-.8-.05-1.43-.15-1.9-.1-.46-.4-.88-.9-1.25-.5-.37-1.28-.71-2.35-1.05-1.07-.33-2.57-.73-4.5-1.2-2.93-.73-5.27-1.5-7-2.3-1.73-.8-3.03-1.78-3.9-2.95-.87-1.17-1.42-2.55-1.65-4.15-.23-1.6-.35-3.53-.35-5.8,0-2.6.28-4.82.85-6.65.57-1.83,1.55-3.33,2.95-4.5,1.4-1.17,3.3-2.03,5.7-2.6,2.4-.57,5.43-.85,9.1-.85.93,0,2.02.03,3.25.1,1.23.07,2.53.17,3.9.3,1.37.13,2.72.3,4.05.5,1.33.2,2.53.43,3.6.7l-1.3,11.2c-2.13-.4-4.42-.73-6.85-1-2.43-.27-4.62-.4-6.55-.4-2.13,0-3.54.27-4.2.8-.67.53-1,1.37-1,2.5,0,.73.05,1.33.15,1.8.1.47.35.87.75,1.2.4.33,1.02.62,1.85.85.83.23,1.98.52,3.45.85,3.46.8,6.2,1.62,8.2,2.45,2,.83,3.5,1.83,4.5,3,1,1.17,1.62,2.58,1.85,4.25.23,1.67.35,3.7.35,6.1Z"/>
    <path class="cls-2" d="m706.9,92.54c-1.6.53-3.32.97-5.15,1.3-1.83.33-3.58.5-5.25.5-4.67,0-8.28-.95-10.85-2.85-2.57-1.9-3.85-5.12-3.85-9.65v-25.6h-6.6v-11.6h6.6v-11.7l14.4-2v13.7h11.1l-.8,11.6h-10.3v23.6c0,1,.27,1.7.8,2.1.53.4,1.27.6,2.2.6.8,0,1.73-.07,2.8-.2,1.07-.13,2.13-.37,3.2-.7l1.7,10.9Z"/>
    <path class="cls-2" d="m728.1,74.04v1.4c0,2.8.63,4.68,1.9,5.65,1.27.97,3.57,1.45,6.9,1.45,2.27,0,4.77-.18,7.5-.55,2.73-.37,5.17-.88,7.3-1.55l2.1,10.8c-2.2.8-4.95,1.52-8.25,2.15-3.3.63-6.65.95-10.05.95-3.93,0-7.28-.47-10.05-1.4-2.77-.93-5.02-2.27-6.75-4-1.73-1.73-3-3.82-3.8-6.25-.8-2.43-1.2-5.15-1.2-8.15v-11.4c0-2.6.33-5.08,1-7.45.67-2.37,1.8-4.45,3.4-6.25,1.6-1.8,3.73-3.22,6.4-4.25,2.67-1.03,6.03-1.55,10.1-1.55s7.37.55,9.9,1.65c2.53,1.1,4.53,2.58,6,4.45,1.47,1.87,2.47,4.02,3,6.45.53,2.43.8,4.98.8,7.65v10.2h-26.2Zm12.6-12.9c0-.87-.08-1.67-.25-2.4-.17-.73-.47-1.38-.9-1.95-.43-.57-1.03-1.02-1.8-1.35-.77-.33-1.78-.5-3.05-.5-2.53,0-4.27.6-5.2,1.8-.93,1.2-1.4,2.67-1.4,4.4v2.1h12.6v-2.1Z"/>
    <path class="cls-2" d="m792.1,57.24c-2.13.87-4.43,1.87-6.9,3-2.47,1.13-4.47,2.27-6,3.4v29.7h-14.4v-48.7h12l1,4.7c.73-.47,1.65-1,2.75-1.6s2.25-1.17,3.45-1.7c1.2-.53,2.4-1.02,3.6-1.45,1.2-.43,2.3-.75,3.3-.95l1.2,13.6Z"/>
  </g>
</svg>