<?xml version="1.0" encoding="UTF-8"?>
<svg id="_Слой_1" data-name="Слой 1" xmlns="http://www.w3.org/2000/svg" viewBox="0 0 181.7903846578 185.3842292736">
  <defs>
    <style>
      .cls-1 {
        fill: #396fb6;
      }
    </style>
  </defs>
  <path class="cls-1" d="m10.8150192442.7717718994C11.7690806543.0918660669,13.0016841313-.105525949,14.1465578234.0501944191c1.2940143264.1886190374,2.3950231261.960641144,3.4104953856,1.7348564952,1.7853011215,1.4212225144,3.4039156517,3.0376438,4.9172544402,4.7396016259,6.5205162581,7.6302980363,12.5629051888,15.6707328167,17.9714464241,24.1278840751.3596921178.815886999,1.3291062403,1.2808548586,2.1427999947.798341042,3.0793154478-1.4256090036,6.2332012127-2.6976908838,9.4923627195-3.6429793154,14.7978214576-4.524663653,30.3698582663-6.6850096047,45.8366193332-5.8186779794,5.4502128831.1601068573,10.8521743845.9562546547,16.2343966843,1.7743348983,5.548908891,1.0330182165,11.0451799111,2.3577379675,16.4208224771,4.079434995,3.7394820787,1.0593371519,7.3758816603,2.4893326448,10.843401406,4.2505080754.381624564.1688798358.7610558835.4035570103,1.1909318292.4342624349.6272679616-.0723770725.8816843376-.7457031711,1.1821588507-1.2128642754,1.0900425766-2.0594566991,2.4147623277-3.9785457424,3.7811537265-5.8647361164,1.6800253796-2.5441637603,3.3863696947-5.0729748083,5.195796507-7.5294087837,2.5331975372-3.4324278318,5.0291099158-6.9021408221,7.8649752107-10.0976982349,1.5243050116-1.7611754306,3.055189757-3.5333170844,4.8339111446-5.0488491174,1.3510386865-1.1909318292,2.956493749-2.3423852552,4.8339111446-2.3445784998,1.9783066481-.0657973386,3.7482550572,1.4190292698,4.3557838172,3.2438087944.7084180126,2.0375242529.1951987713,4.2198026507-.0723770725,6.2902255729-.8356262006,3.6846509632-1.7699484091,7.3868478834-3.3929494286,10.8148892259-.8926505607,1.9344417557-1.614228041,3.9412605838-2.4739799324,5.8888618073-2.574869185,5.6695373452-5.5335561787,11.1592286314-8.6742824759,16.5326779527-.6470071632.8926505607.144754145,1.7940740999.6952585448,2.4827529109,2.5068786018,3.0595762462,4.6738042873,6.382341847,6.6477244461,9.8081899449,1.7238902721,2.7898071578,3.0573830016,5.7945522886,4.397455465,8.7795582177,2.175698664,4.9984044911,4.0070579225,10.1481428611,5.375642566,15.4272826638,1.2655021463,4.6145866825,1.9059295756,9.3673477761,2.5375840264,14.1025629127.625074717,4.3689432849.7720221066,8.7817514623,1.0220519934,13.1814001719.2697690884,4.3053391909.4123299887,8.6172581157.6426206739,12.9247905513.0833432956,3.1407262972-.0482513817,6.2880323283.1820393035,9.4243721362.0219324462,4.0969809519.0723770725,8.1939619039.0855365402,12.2909428558.254416376,3.5749887321.1074689864,7.1653301766.162300102,10.7490918873.0065797339,3.5048049043-.0219324462,7.0118030532-.0263189355,10.5188012021-.2675758437,4.3075324355-.0767635617,8.6304175834-.2631893545,12.9401432636-.2631893545,2.1778919086.162300102,4.4237744005-.4518083919,6.5578014166-.5132192413,1.7940740999-2.3928298814,2.8424450288-4.1561985567,2.9937789076-1.886190374.0657973386-3.5157711274-1.0944290659-4.8295246553-2.3248392982-1.8664511724-1.7918808553-3.4302345872-3.9215213823-4.4325473789-6.3143512637-1.6164212856-3.6188536246-2.7503287547-7.4285195312-3.9127484038-11.2096732577-.7281572142-2.8534112519-1.4957928315-5.6958562806-2.2678149381-8.5361080647-1.3641981542-4.9260274187-2.2963271181-9.9661035576-3.726322611-14.8745850193-.2127447282-.6338476955-.4715475935-1.7260835167-1.3729711327-1.5001793207-.5285719537.3509191394-.7961477974.9716073671-1.1404872029,1.487019853-1.278661614,2.1142878146-2.6954976391,4.1452323336-4.2241891399,6.0862538231-.5855963138.7171909911-1.4935995869,1.4431549606-2.476173177,1.1777723615-1.1799656061-.8093072651-1.6295807534-2.2590419596-2.2327230241-3.4872589473-1.7633686752-3.7131631433-3.263547996-7.5491479853-4.5115041853-11.4662828783-1.2676953909-4.1869039814-2.2787811612-8.4461850353-3.3841764501-12.6791471537-.2851218007-.9913465687-.5461179106-1.9980458497-.989153324-2.9323680582-.1557203681-.335566427-.5461179106-.7259639695-.9343222085-.5022530182-1.0615303965.5724368461-1.9870796266,1.3620049096-2.927981569,2.11209457-3.0244843323,2.4674001986-6.0687078662,4.9150611956-9.1589895371,7.3035045878-.5812098246.4540016365-1.3620049096.8772978484-2.1011283469.5417314214-1.2545359232-.5855963138-2.0265580298-1.7940740999-2.9674599721-2.7525219993-2.6889179053-2.8797301873-5.2045694855-5.9151807427-7.8145305844-8.8650947579-.3903975425-.3728515856-.9058100285-1.1361007137-1.4979860761-.6601666309-1.949794468,1.5572036809-3.8294051082,3.2065236358-5.8142914901,4.7220556689-3.8952024468,3.0266775769-7.6237183024,6.2573269036-11.4246112305,9.4002464454-.5329584429.4211029672-1.1711926276.7391234373-1.8576781939.7807950851-.5834030692.0109662231-1.0637236412-.3662718517-1.4935995869-.7084180126-5.4304736815-4.5224704084-10.9267447016-8.9659840104-16.4953927942-13.3151880938-.4561948812-.3487258947-.8772978484-.752282905-1.3839373558-1.024245238-.5680503568-.254416376-.9803803456.3487258947-1.342265708.6820990771-2.9981653968,3.3600507593-5.9436929228,6.7661596556-8.9615975212,10.1064712133-.5987557815.6557801417-1.1777723615,1.4672806514-2.1011283469,1.6646726673-1.0988155551.2171312175-2.0616499437-.5066395074-2.8841166766-1.1317142244-3.0990546494-2.5310042926-6.2353944574-5.022530182-9.3256761283-7.5666939423-.6974517895-.5812098246-1.5001793207-1.0132790149-2.3138730751-1.4036765574-.5154124859.543924666-.8882640715,1.2084777861-1.0374047057,1.949794468-1.1624196491,4.9720855557-2.384056903,9.9353981329-3.853530799,14.8307201269-.9036167838,3.2174898589-2.2590419596,6.2792593498-3.5749887321,9.3454153299-.6228814723,1.4431549606-1.1097817782,2.9937789076-2.1449932393,4.2132229168-.3618853625.4430354134-.9145830069.6492004078-1.4168360251.8926505607-.6513936524-.3026677577-1.2830481033-.6689396094-1.7721416537-1.2062845415-1.8028470784-1.8774173955-2.9082423674-4.2724405216-4.3228851479-6.4262067394-.4737408381-.7588626388-1.2655021463-1.3466521973-2.2020175994-1.2391832108-.1930055266.4934800397-.3838178087.9913465687-.5022530182,1.5133387885-2.077002656,9.1282841124-4.4325473789,18.1929641308-7.0030300747,27.1962332998-.6930653002,2.3577379675-1.5111455438,4.6825772657-2.5156515802,6.9284597576-.6448139186,1.4256090036-1.2457629447,2.892889655-2.1691189301,4.1693580244-1.232603477,1.7326632506-2.7481355101,3.3008331545-4.5838812578,4.3930689758-2.0813891453,1.1953183184-4.9611193326.5329584429-6.3582161561-1.4036765574-.7193842357-.9562546547-.7610558835-2.2085973333-.8224667329-3.3534710254-.399170521-12.1330292431-.335566427-24.2726382201-.2390636637-36.4078607078.0372851586-5.8471901595.0833432956-11.6943803189.3224069593-17.5371839891.2653825991-11.1987070346.8838775822-22.3952208245,2.0923553684-33.5347102543.416716478-3.5377035736,1.0374047057-7.0490882117,1.7238902721-10.5429268929,1.0922358212-6.156437651,3.7416753233-11.8698398886,6.1301187156-17.6029813277.9913465687-2.2722014273,1.8949633525-4.5926542363,3.1604654988-6.7332609863,1.2040912969-2.013398562,2.2020175994-4.1496188228,3.5771819768-6.0599348877,1.8160065461-2.528811048,3.9105551592-4.8426841231,5.8954415411-7.2399004938.2697690884-.3947840318.688678811-.8465924237.5088327521-1.3620049096-.4847070612-1.4957928315-1.405869802-2.7876139132-2.1866648871-4.1364593551-2.9411410367-5.0773612975-5.5423291571-10.3586943447-7.6478439933-15.8396126525-.960641144-2.5485502495-2.2897473843-4.9435733756-3.1977506573-7.5118628268-.8268532221-2.2020175994-1.4826333638-4.4654460483-1.9892728712-6.7617731664-.3026677577-1.3159467726-.6492004078-2.6889179053-.3443394055-4.0377633472.3925907871-1.5703631486,1.3707778881-2.9893924184,2.6976908838-3.9149416484Zm38.9586042019,71.0545459849c-5.1278059238.8641383807-9.4989424533,4.9698923111-10.7512851319,10.0055819608-1.0264384826,3.8864294683-.2215177067,8.2137011055,2.1625391963,11.4531234106,1.8598714386,2.5814489189,4.6452921072,4.4917649837,7.7509264904,5.2155357086,3.5377035736.8531721575,7.4043938403.225904196,10.4705498204-1.7392429844,4.605813704-2.8161260933,7.180682889-8.5558472663,6.1871430757-13.8656924936-.7084180126-4.4522865805-3.8403713313-8.3979336536-7.9724441972-10.1766550412-2.4608204647-1.0264384826-5.2177289532-1.4256090036-7.8474292538-.8926505607Zm77.3491580471.0789568064c-5.1387721469.6623598755-9.6634357999,4.5948474809-11.0495664003,9.5866722382-1.1865453399,3.8820429791-.480320572,8.3014308903,1.8642579278,11.6176167572,1.3839373558,1.9739201589,3.2810939529,3.6056941568,5.4896912862,4.5860745024,3.2657412406,1.550623947,7.1741031551,1.6756388904,10.5319606698.3311799378,3.6517522939-1.3444589526,6.5885068413-4.3842959973,7.9263860601-8.0228888234,1.0110857703-2.8577977411,1.1273277352-6.0577416431.1206284542-8.9330853411-.9540614101-2.927981569-2.9543005044-5.502850754-5.5532953802-7.1543639535-2.7305895531-1.7699484091-6.1125727586-2.5156515802-9.3300626175-2.0112053174Z"/>
</svg>